<svg xmlns="http://www.w3.org/2000/svg" viewBox="0 0 320 240" role="img" aria-label="ภาพตัวอย่างรายงานจุดเผา">
  <rect width="320" height="240" fill="#e2e8f0"/>
  <path d="M0 173l72-54 48 38 61-70 139 86v67H0z" fill="#94a3b8"/>
  <circle cx="246" cy="52" r="24" fill="#f97316"/>
  <path d="M154 192c35 0 62-24 62-57 0-27-17-44-35-64-7 16-20 26-37 32 2-19-4-32-19-43 1 27-22 38-22 75 0 34 24 57 51 57z" fill="#c2410c" opacity=".85"/>
  <path d="M157 176c18 0 31-12 31-29 0-15-9-24-20-36-6 12-15 19-28 23 1-12-3-21-12-29 1 18-14 25-14 49 0 14 13 22 43 22z" fill="#fed7aa"/>
</svg>
